<?xml version="1.0" encoding="UTF-8"?>
<svg width="19px" height="22px" viewBox="0 0 19 22" version="1.1" xmlns="http://www.w3.org/2000/svg" xmlns:xlink="http://www.w3.org/1999/xlink">
    <!-- Generator: Sketch 50.2 (55047) - http://www.bohemiancoding.com/sketch -->
    <title>Combined Shape Copy</title>
    <desc>Created with Sketch.</desc>
    <defs></defs>
    <g id="Page-1" stroke="none" stroke-width="1" fill="none" fill-rule="evenodd">
        <path d="M1.09774394,8.96806602 L5.73105295,8.96806602 C4.81285558,9.88942618 4.24524187,11.1603897 4.24524187,12.5639264 C4.24524187,15.3773398 6.52596405,17.658062 9.33937745,17.658062 C12.1527908,17.658062 14.433513,15.3773398 14.433513,12.5639264 C14.433513,9.75051304 12.1527908,7.46979086 9.33937745,7.46979086 L1.54675627,7.46979086 L1.16214507,7.46979086 C0.0864281813,7.46979086 -0.785612654,6.59775002 -0.785612654,5.52203313 C-0.785612654,4.44631625 0.0864281813,3.57427541 1.16214507,3.57427541 L9.4142912,3.57427541 C9.43609225,3.57427541 9.45780965,3.57463359 9.47943782,3.57534438 C14.3796983,3.65018973 18.3290285,7.64585034 18.3290285,12.5639264 C18.3290285,17.5287736 14.3042246,21.5535774 9.33937745,21.5535774 C4.37453028,21.5535774 0.349726428,17.5287736 0.349726428,12.5639264 C0.349726428,11.2854098 0.616624675,10.0692306 1.09774394,8.96806602 Z" id="Combined-Shape-Copy" fill="#000000" fill-rule="nonzero" transform="translate(8.771708, 12.563926) rotate(-330.000000) translate(-8.771708, -12.563926) "></path>
    </g>
</svg>