<?xml version="1.0" encoding="UTF-8"?>
<svg width="95px" height="112px" viewBox="0 0 95 112" version="1.1" xmlns="http://www.w3.org/2000/svg" xmlns:xlink="http://www.w3.org/1999/xlink">
    <!-- Generator: Sketch 48.2 (47327) - http://www.bohemiancoding.com/sketch -->
    <title>Group 7 Copy</title>
    <desc>Created with Sketch.</desc>
    <defs></defs>
    <g id="Page-1" stroke="none" stroke-width="1" fill="none" fill-rule="evenodd">
        <g id="Group-7-Copy" transform="translate(44.484283, 63.386207) rotate(-330.000000) translate(-44.484283, -63.386207) translate(-6.015717, 15.886207)" fill="#FFFFFF" fill-rule="nonzero">
            <path d="M10.2015734,28.2667661 L34.4829502,28.2667661 C29.6710336,33.0952576 26.6963902,39.7558846 26.6963902,47.1112768 C26.6963902,61.855286 38.6487712,73.807667 53.3927804,73.807667 C68.1367896,73.807667 80.0891706,61.855286 80.0891706,47.1112768 C80.0891706,32.3672676 68.1367896,20.4148866 53.3927804,20.4148866 L14.5702713,20.4148866 C23.0662218,8.08341392 37.2855098,0 53.3927804,0 C79.4116201,0 100.504057,21.0924371 100.504057,47.1112768 C100.504057,73.1301166 79.4116201,94.2225537 53.3927804,94.2225537 C27.3739407,94.2225537 6.28150358,73.1301166 6.28150358,47.1112768 C6.28150358,40.4110666 7.68021385,34.0375427 10.2015734,28.2667661 Z" id="Combined-Shape"></path>
            <path d="M53.7853744,2.27373675e-13 L10.5390748,3.1663921e-13 C4.90165951,3.1663921e-13 0.331631478,4.57002804 0.331631478,10.2074433 C0.331631478,15.8448586 4.90165951,20.4148866 10.5390748,20.4148866 L53.7853744,20.4148866 C59.4227897,20.4148866 63.9928177,15.8448586 63.9928177,10.2074433 C63.9928177,4.57002804 59.4227897,2.27373675e-13 53.7853744,2.27373675e-13 Z" id="Line"></path>
        </g>
    </g>
</svg>
